<mxfile host="app.diagrams.net" modified="2023-12-05T07:54:35.400Z" agent="Mozilla/5.0 (Windows NT 10.0; Win64; x64) AppleWebKit/537.36 (KHTML, like Gecko) Chrome/119.0.0.0 Safari/537.36" version="22.1.5" etag="96rX6_3oZEkRCyJWJEHW" type="github">
  <diagram name="Страница — 1" id="LTqVgdhhhah4Ef-IsAjk">
    <mxGraphModel>
      <root>
        <mxCell id="0" />
        <mxCell id="1" parent="0" />
      </root>
    </mxGraphModel>
  </diagram>
</mxfile>
